# xmcd
#
# Track frame offsets: 
#        150
#        20834
#        38605
#        49464
#        63717
#        83681
#        92459
#        109761
#        128270
#        139134
#        163434
#        171488
#        190011
#        212241
#        227847
#        242012
#
# Disc length: 3457 seconds
#
# Revision: 0
# Processed by: cddbd v1.5.2PL0 Copyright (c) Steve Scherf et al.
# Submitted via: ExactAudioCopy v0.95b3
#
DISCID=e00d7f10
DTITLE=The Pretenders  - The Pretenders  (2006 remaster) - Disc 2 - FL
DTITLE=AC
DYEAR=1900
DGENRE=
TTITLE0=Cuban Slide (B-Side of ''Talk Of The Town'')
TTITLE1=Porcelain (B-Side of ''Message Of Love'')
TTITLE2=The Phone Call (Demo - Late 1977)
TTITLE3=The Wait (Demo - 1978)
TTITLE4=I Can't Control Myself (Demo - 1978)
TTITLE5=Swinging London (B-Side of ''Brass In Pocket'')
TTITLE6=Brass In Pocket (Demo - 1978)
TTITLE7=Kid (Demo - 1978)
TTITLE8=Stop Your Sobbing (Demo - 1978)
TTITLE9=Tequila (Demo - 1978)
TTITLE10=Nervous But Shy (B-Side of ''Brass In Pocket'')
TTITLE11=I Need Somebody (Live - 1979)
TTITLE12=Mystery Achievement (Live - 1979)
TTITLE13=Precious (Live - 1980)
TTITLE14=Tattooed Love Boys (Live - 1980)
TTITLE15=Sabre Dance (Live - 1979)
EXTD=
EXTT0=
EXTT1=
EXTT2=
EXTT3=
EXTT4=
EXTT5=
EXTT6=
EXTT7=
EXTT8=
EXTT9=
EXTT10=
EXTT11=
EXTT12=
EXTT13=
EXTT14=
EXTT15=
PLAYORDER=
